Coordinates
version=1
nRows=10
nColumns=46
inDegrees=yes

Units are S.I. units (second, meters, Newtons, ...)
Angles are in degrees.

endheader
time	pelvis_tilt	pelvis_list	pelvis_rotation	pelvis_tx	pelvis_ty	pelvis_tz	bb_angle	bb_tx	bb_ty	bb_tz	hip_flexion_r	hip_adduction_r	hip_rotation_r	knee_angle_r	knee_angle_r_beta	ankle_angle_r	subtalar_angle_r	mtp_angle_r	crank_angle_r	hip_flexion_l	hip_adduction_l	hip_rotation_l	knee_angle_l	knee_angle_l_beta	ankle_angle_l	subtalar_angle_l	mtp_angle_l	crank_angle_l	lumbar_extension	lumbar_bending	lumbar_rotation	arm_flex_r	arm_add_r	arm_rot_r	elbow_flex_r	pro_sup_r	wrist_flex_r	wrist_dev_r	arm_flex_l	arm_add_l	arm_rot_l	elbow_flex_l	pro_sup_l	wrist_flex_l	wrist_dev_l
      5.00000000	    -33.36575572	     -7.35422367	    -17.49021385	      0.43448734	      1.20954869	     -0.28482736	      0.00000000	      0.50000000	      0.00000000	      0.25000000	     71.98533008	     12.24213703	     -1.60816116	     78.15741186	      1.36410417	     14.86983273	     -3.72382229	      0.00000000	      0.00000000	     35.54172221	    -21.08474954	     -7.66159253	     40.54712962	      0.70768091	    -28.71209723	      1.37322643	      0.00000000	      0.00000000	    -64.32366282	     -6.60557043	     15.55124151	     38.84037802	    -38.83727849	     20.85812799	    110.02402819	     50.87082918	      0.00000000	      0.00000000	     28.79774477	    -12.32199220	      5.07278059	     98.81883483	     51.90783934	      0.00000000	      0.00000000
      5.00500000	    -33.47113030	     -6.60024698	    -16.92130866	      0.43407511	      1.21009368	     -0.28399230	      0.00000000	      0.50000000	      0.00000000	      0.25000000	     71.33234818	     11.75199970	     -0.96299666	     75.97062670	      1.32593757	     14.21349906	     -4.45226454	      0.00000000	      0.00000000	     37.08057534	    -20.27784296	     -6.91229367	     42.72628418	      0.74571434	    -29.38928518	      0.72217368	      0.00000000	      0.00000000	    -64.19409308	     -6.75797030	     14.89973626	     38.22890687	    -38.25207002	     19.86392802	    110.30114131	     50.80908773	      0.00000000	      0.00000000	     29.20651960	    -12.90906506	      5.87140006	     98.58593717	     51.99404080	      0.00000000	      0.00000000
      5.01000000	    -33.18149230	     -5.83066152	    -16.57957529	      0.43426332	      1.21117723	     -0.28284864	      0.00000000	      0.50000000	      0.00000000	      0.25000000	     70.18754658	     11.44206421	     -0.02122928	     73.82079462	      1.28841592	     13.94684429	     -4.39375490	      0.00000000	      0.00000000	     37.87065456	    -19.57767735	     -6.75319605	     44.61245110	      0.77863416	    -29.85834152	      0.78158407	      0.00000000	      0.00000000	    -64.41485420	     -7.16742166	     14.24309013	     37.96296329	    -38.24993482	     19.75868428	    110.30529018	     50.80189209	      0.00000000	      0.00000000	     29.40372668	    -12.85083256	      6.02141528	     98.51455244	     52.00060339	      0.00000000	      0.00000000
      5.01500000	    -32.97944218	     -5.10191184	    -15.95328990	      0.43373296	      1.21162434	     -0.28211506	      0.00000000	      0.50000000	      0.00000000	      0.25000000	     69.30210537	     10.82604731	      0.62810179	     71.87496268	      1.25445475	     13.09813881	     -4.96322683	      0.00000000	      0.00000000	     39.02891685	    -18.72687047	     -6.26728439	     46.78107207	      0.81648374	    -30.23421258	      0.02776441	      0.00000000	      0.00000000	    -64.56340217	     -7.31812181	     13.46839209	     37.55677912	    -37.74280207	     19.03747141	    110.50777101	     50.75964481	      0.00000000	      0.00000000	     30.28895831	    -13.30655347	      6.45827441	     98.34511729	     52.02863647	      0.00000000	      0.00000000
      5.02000000	    -32.59988776	     -4.12620031	    -15.25887486	      0.43419435	      1.21259971	     -0.28185762	      0.00000000	      0.50000000	      0.00000000	      0.25000000	     68.13134078	      9.93323172	      1.52476777	     69.85460935	      1.21919293	     12.28818610	     -5.30394912	      0.00000000	      0.00000000	     39.67449492	    -17.49548041	     -6.07230321	     48.41961503	      0.84508170	    -30.78080450	     -0.55369377	      0.00000000	      0.00000000	    -64.86406508	     -7.49316929	     12.64901015	     36.74045464	    -37.11410347	     17.55398458	    110.75006630	     50.64446040	      0.00000000	      0.00000000	     30.96896140	    -13.86243923	      7.55202676	     97.84602466	     52.10250919	      0.00000000	      0.00000000
      5.02500000	    -32.48022256	     -3.46029296	    -14.72632979	      0.43386987	      1.21277113	     -0.28095325	      0.00000000	      0.50000000	      0.00000000	      0.25000000	     67.21919508	      9.45021967	      2.26308247	     67.82669433	      1.18379914	     11.36062449	     -5.55743390	      0.00000000	      0.00000000	     40.70536785	    -16.87623293	     -5.94529063	     50.45689416	      0.88063893	    -30.59389805	     -0.65073767	      0.00000000	      0.00000000	    -64.85894129	     -7.71762000	     12.74827527	     35.10635494	    -37.07474973	     15.44979043	    111.35936405	     50.53123918	      0.00000000	      0.00000000	     32.08551449	    -14.00920644	      9.20169753	     97.13959834	     52.26145208	      0.00000000	      0.00000000
      5.03000000	    -32.20637952	     -2.78787119	    -13.97138180	      0.43364012	      1.21317221	     -0.28057872	      0.00000000	      0.50000000	      0.00000000	      0.25000000	     66.11285559	      8.68478145	      2.92287255	     65.77512549	      1.14799251	     10.31789782	     -5.88579597	      0.00000000	      0.00000000	     41.52739913	    -15.98447220	     -5.65235930	     52.37321583	      0.91408506	    -30.31750471	     -1.04959099	      0.00000000	      0.00000000	    -65.06724285	     -7.62127602	     12.02234018	     34.78624082	    -36.85277221	     15.06984872	    111.65285915	     50.54143308	      0.00000000	      0.00000000	     32.64042122	    -14.20035611	      9.45025611	     96.86319116	     52.25942063	      0.00000000	      0.00000000
      5.03500000	    -32.01183748	     -2.14451803	    -13.29842794	      0.43336135	      1.21328135	     -0.28015482	      0.00000000	      0.50000000	      0.00000000	      0.25000000	     65.06419850	      7.96390508	      3.47842630	     63.66821665	      1.11122001	      9.05776483	     -6.23933642	      0.00000000	      0.00000000	     42.36350932	    -15.19664649	     -5.49751677	     54.32933268	      0.94822574	    -29.64829184	     -1.49107576	      0.00000000	      0.00000000	    -65.19282019	     -7.57427808	     11.34771579	     34.42944586	    -36.52664007	     14.69592539	    111.77120451	     50.52413867	      0.00000000	      0.00000000	     33.10320726	    -14.50323238	      9.77790387	     96.72086169	     52.28338005	      0.00000000	      0.00000000
      5.04000000	    -31.87134320	     -1.55735493	    -12.62372183	      0.43298152	      1.21314954	     -0.27973029	      0.00000000	      0.50000000	      0.00000000	      0.25000000	     64.01094457	      7.30064388	      4.10132431	     61.52801061	      1.07386637	      7.78676671	     -6.26407471	      0.00000000	      0.00000000	     43.25427136	    -14.51198454	     -5.38876251	     56.34126058	      0.98334050	    -28.77912231	     -1.91402630	      0.00000000	      0.00000000	    -65.19456071	     -7.47246671	     10.77206324	     34.06581517	    -36.29563893	     14.39173272	    111.82616479	     50.50493018	      0.00000000	      0.00000000	     33.55215563	    -14.81175420	      9.86271492	     96.76727755	     52.30465183	      0.00000000	      0.00000000
      5.04500000	    -31.98804811	     -1.28138051	    -11.70416673	      0.43216996	      1.21230858	     -0.27957577	      0.00000000	      0.50000000	      0.00000000	      0.25000000	     63.14975765	      6.65951205	      4.30376611	     59.34034379	      1.03568438	      6.13680778	     -7.34634969	      0.00000000	      0.00000000	     44.64006075	    -13.97180099	     -4.81155907	     58.61504672	      1.02302556	    -27.80114178	     -2.18143864	      0.00000000	      0.00000000	    -64.98560340	     -6.95270755	     10.20825909	     33.68886404	    -35.49379607	     13.63419733	    111.98717213	     50.45244892	      0.00000000	      0.00000000	     33.79874197	    -15.54938552	     10.71058984	     96.53135651	     52.38286045	      0.00000000	      0.00000000
